{"title":"Dishkiyaoon 2014 [WebRip 300MB] [Movies2Fun]","uid":9910846,"size":407277685,"categoryP":"video","categoryS":"movies","magnet":"?xt=urn:btih:fc64f9054b9c257cba5651ecc3c451a34235f6f4&amp;dn=Dishkiyaoon+2014+%5BWebRip+300MB%5D+%5BMovies2Fun%5D&amp;tr=udp%3A%2F%2Ftracker.openbittorrent.com%3A80&amp;tr=udp%3A%2F%2Fopen.demonii.com%3A1337&amp;tr=udp%3A%2F%2Ftracker.coppersurfer.tk%3A6969&amp;tr=udp%3A%2F%2Fexodus.desync.com%3A6969","seeders":1,"leechers":0,"uploader":"taztoor","files":3,"time":1396894553,"description":"General\nFormat : Flash Video\nFile size : 384 MiB\nDuration : 1h 58mn\nOverall bit rate : 452 Kbps\nTagging application : Yet Another Metadata Injector for FLV - Version 1.9\n\nVideo\nFormat : AVC\nFormat/Info : Advanced Video Codec\nFormat profile : &lt;a class=&quot;__cf_email__&quot; href=&quot;/cdn-cgi/l/email-protection&quot; data-cfemail=&quot;a8e0c1cfc0e8e49b8698&quot;&gt;[email&amp;#160;protected]&lt;/a&gt;&lt;script cf-hash='f9e31' type=&quot;text/javascript&quot;&gt;\n/* &lt;![CDATA[ */!function(){try{var t=&quot;currentScript&quot;in document?document.currentScript:function(){for(var t=document.getElementsByTagName(&quot;script&quot;),e=t.length;e--;)if(t[e].getAttribute(&quot;cf-hash&quot;))return t[e]}();if(t&amp;&amp;t.previousSibling){var e,r,n,i,c=t.previousSibling,a=c.getAttribute(&quot;data-cfemail&quot;);if(a){for(e=&quot;&quot;,r=parseInt(a.substr(0,2),16),n=2;a.length-n;n+=2)i=parseInt(a.substr(n,2),16)^r,e+=String.fromCharCode(i);e=document.createTextNode(e),c.parentNode.replaceChild(e,c)}}}catch(u){}}();/* ]]&gt; */&lt;/script&gt;\nFormat settings, CABAC : Yes\nFormat settings, ReFrames : 4 frames\nCodec ID : 7\nDuration : 1h 58mn\nBit rate : 315 Kbps\nWidth : 720 pixels\nHeight : 308 pixels\nDisplay aspect ratio : 2.35:1\nFrame rate mode : Constant\nFrame rate : 24.000 fps\nColor space : YUV\nChroma subsampling : 4:2:0\nBit depth : 8 bits\nScan type : Progressive\nBits/(Pixel*Frame) : 0.059\nStream size : 276 MiB (72%)\nWriting library : x264 core 138\n\nAudio\nFormat : AAC\nFormat/Info : Advanced Audio Codec\nFormat profile : LC\nCodec ID : 10\nDuration : 1h 58mn\nBit rate : 118 Kbps\nChannel count : 2 channels\nChannel positions : Front: L R\nSampling rate : 44.1 KHz\nCompression mode : Lossy\nDelay relative to video : 37ms\nStream size : 106 MiB (28%)","torrent":{"xt":"urn:btih:fc64f9054b9c257cba5651ecc3c451a34235f6f4","amp;dn":"Dishkiyaoon+2014+%5BWebRip+300MB%5D+%5BMovies2Fun%5D","amp;tr":["udp%3A%2F%2Ftracker.openbittorrent.com%3A80","udp%3A%2F%2Fopen.demonii.com%3A1337","udp%3A%2F%2Ftracker.coppersurfer.tk%3A6969","udp%3A%2F%2Fexodus.desync.com%3A6969"],"infoHash":"fc64f9054b9c257cba5651ecc3c451a34235f6f4","infoHashBuffer":{"type":"Buffer","data":[252,100,249,5,75,156,37,124,186,86,81,236,195,196,81,163,66,53,246,244]},"announce":[],"urlList":[]}}